<svg id="_x31_" enableBackground="new 0 0 24 24" height="25" viewBox="0 0 24 24" width="25" xmlns="http://www.w3.org/2000/svg"><g><g><path d="m4.5 24h-3c-.827 0-1.5-.673-1.5-1.5v-14c0-.827.673-1.5 1.5-1.5h3c.827 0 1.5.673 1.5 1.5v14c0 .827-.673 1.5-1.5 1.5zm-3-16c-.276 0-.5.224-.5.5v14c0 .276.224.5.5.5h3c.276 0 .5-.224.5-.5v-14c0-.276-.224-.5-.5-.5z"/></g></g><g><g><path d="m18.333 24h-1.833c-7.573 0-11.143-2.487-11.291-2.593-.225-.16-.276-.471-.117-.696s.471-.277.697-.119c.035.025 3.491 2.408 10.711 2.408h1.833c1.718 0 3.17-1.23 3.452-2.924l1.167-7c.169-1.017-.116-2.051-.782-2.838-.667-.787-1.64-1.238-2.671-1.238h-5.999c-.184 0-.352-.102-.439-.263s-.079-.359.022-.513c.009-.014.917-1.423.917-3.724 0-2.769-1.308-3.5-2-3.5-.492 0-1 0-1 2.5 0 3.766-5.061 6.339-5.276 6.447-.246.124-.547.024-.67-.224-.124-.246-.025-.546.222-.67.047-.024 4.724-2.406 4.724-5.553 0-2.161.334-3.5 2-3.5 1.038 0 3 .94 3 4.5 0 1.574-.375 2.776-.684 3.5h5.183c1.325 0 2.577.58 3.434 1.591s1.223 2.341 1.005 3.648l-1.167 7c-.363 2.179-2.229 3.761-4.438 3.761z"/></g></g></svg>
